<svg width="480" height="89" viewBox="0 0 480 89" fill="none" xmlns="http://www.w3.org/2000/svg">
<path d="M54.9963 73.7362V58.0232L41.2474 44.2743L54.9963 30.5255V14.8125L25.6855 44.2743L54.9963 73.7362Z" fill="white"/>
<path d="M0 88.5366H88.6877V0H0V88.5366ZM11.0293 11.0293H77.5073V77.5073H11.0293V11.0293Z" fill="white"/>
<path d="M137.186 9.67985C141.265 9.67985 145.797 11.1907 150.481 14.0614C150.783 13.457 151.085 11.9461 150.934 9.07551C150.934 6.35595 150.783 4.54292 150.481 3.78749C146.704 1.52119 142.02 0.3125 136.581 0.3125C128.725 0.3125 122.53 2.5788 117.846 7.26247C113.163 11.7951 110.896 17.5363 110.896 24.3352C110.896 31.1341 113.163 36.7243 117.846 41.408C122.53 45.9406 128.876 48.3579 136.581 48.3579C142.02 48.3579 146.704 47.1493 150.481 44.883C150.783 44.1275 150.934 42.3145 150.934 39.5949C150.934 36.8754 150.783 35.2134 150.481 34.6091C145.797 37.4797 141.416 38.9906 137.186 38.9906C132.955 38.9906 129.329 37.6308 126.458 35.0624C123.588 32.3428 122.228 28.8678 122.228 24.4863C122.228 20.1048 123.588 16.4787 126.458 13.9103C129.329 11.0396 132.955 9.67985 137.186 9.67985Z" fill="white"/>
<path d="M202.155 46.9954V1.36732C199.133 0.914063 196.262 0.914063 193.392 1.36732L172.089 28.1096V1.36732C168.311 0.762976 164.534 0.762976 160.908 1.36732V46.9954C163.93 47.4487 166.801 47.4487 169.671 46.9954L190.974 20.2531V46.9954C194.752 47.7508 198.529 47.7508 202.155 46.9954Z" fill="white"/>
<path d="M254.428 46.9954V1.36732C250.651 0.762976 246.874 0.762976 243.248 1.36732V19.3466H224.362V1.36732C220.585 0.762976 216.808 0.762976 213.182 1.36732V46.9954C216.959 47.5997 220.736 47.5997 224.362 46.9954V28.7139H243.248V47.1465C246.874 47.7508 250.651 47.7508 254.428 46.9954Z" fill="white"/>
<path d="M297.186 10.7306C297.79 7.70891 297.79 4.53609 297.186 1.36328H265.307V46.9913H297.186C297.79 43.8185 297.79 40.7968 297.186 37.624H276.487V28.5588H294.617C295.222 25.5371 295.222 22.3643 294.617 19.1915H276.487V10.5795H297.186V10.7306Z" fill="white"/>
<path d="M336.923 5.5937C333.75 2.72306 329.671 1.36328 324.534 1.36328H306.555V46.9914C310.332 47.5957 314.109 47.5957 317.735 46.9914V32.0338H324.383C329.52 32.0338 333.599 30.674 336.772 27.8034C339.945 24.9327 341.607 21.3067 341.607 16.7741C341.758 12.0904 340.096 8.46434 336.923 5.5937ZM324.534 22.6665H317.886V10.7306H324.534C327.858 10.7306 330.275 12.6948 330.275 16.7741C330.275 20.7023 327.858 22.6665 324.534 22.6665Z" fill="white"/>
<path d="M350.064 46.9914C353.842 47.5957 357.619 47.5957 361.245 46.9914V10.7306H380.131C380.735 7.70891 380.735 4.53609 380.131 1.36328H350.064V46.9914Z" fill="white"/>
<path d="M388.293 1.36732V46.9954C391.315 47.4487 394.185 47.4487 397.056 46.9954L418.359 20.2531V46.9954C422.136 47.5997 425.913 47.5997 429.54 46.9954V1.36732C426.518 0.914063 423.647 0.914063 420.777 1.36732L399.473 28.1096V1.36732C395.847 0.762976 392.07 0.762976 388.293 1.36732Z" fill="white"/>
<path d="M439.811 16.4719C439.811 22.5154 443.135 27.5012 448.574 29.9186L437.545 46.9914C439.207 47.2935 441.171 47.4446 443.588 47.4446C446.006 47.4446 448.121 47.2935 449.783 46.9914L458.848 33.0914L459.906 31.5805H464.287V46.9914C468.064 47.5957 471.842 47.5957 475.468 46.9914V15.1121V1.36328H457.035C451.898 1.36328 447.819 2.72306 444.646 5.5937C441.322 8.31325 439.811 11.9393 439.811 16.4719ZM457.035 10.7306H463.985V12.5437V22.2132H458.546H456.884C453.56 22.2132 451.143 20.2491 451.143 16.4719C451.143 12.8458 453.711 10.7306 457.035 10.7306Z" fill="white"/>
<path d="M142.02 60.5899V82.1953H134.466V60.5899C132.2 60.2877 129.934 60.2877 127.818 60.5899V82.1953H120.264V60.5899C117.998 60.2877 115.731 60.2877 113.616 60.5899V87.7854H148.819V60.5899C146.553 60.2877 144.287 60.2877 142.02 60.5899Z" fill="white"/>
<path d="M179.036 60.5834C178.13 60.4323 176.77 60.2813 175.108 60.2813C173.446 60.2813 172.086 60.4323 171.18 60.5834L162.115 72.9725V60.5834C159.848 60.2813 157.582 60.2813 155.467 60.5834V87.779C157.733 88.0811 159.999 88.0811 162.115 87.779V74.6345L171.482 87.779C172.388 87.93 173.748 88.0811 175.41 88.0811C177.072 88.0811 178.432 87.93 179.338 87.779L169.216 73.7279L179.036 60.5834Z" fill="white"/>
<path d="M195.658 59.9766C191.427 59.9766 187.952 61.3363 185.233 64.0559C182.513 66.7754 181.153 70.0993 181.153 74.1787C181.153 78.1069 182.513 81.5819 185.233 84.3015C187.952 87.021 191.427 88.3808 195.658 88.3808C199.888 88.3808 203.363 87.021 206.083 84.3015C208.802 81.5819 210.162 78.1069 210.162 74.1787C210.162 70.2504 208.802 66.7754 206.083 64.0559C203.363 61.3363 199.888 59.9766 195.658 59.9766ZM201.097 80.5243C199.586 82.0352 197.773 82.9417 195.658 82.9417C193.542 82.9417 191.729 82.1862 190.218 80.5243C188.708 78.8623 187.952 76.8982 187.952 74.1787C187.952 71.6102 188.708 69.495 190.218 67.833C191.729 66.1711 193.542 65.4157 195.658 65.4157C197.773 65.4157 199.586 66.1711 201.097 67.833C202.608 69.3439 203.363 71.4591 203.363 74.1787C203.363 76.8982 202.608 79.0134 201.097 80.5243Z" fill="white"/>
<path d="M217.563 79.4717C217.412 81.4358 216.354 82.4934 214.844 82.4934C214.39 82.4934 214.088 82.4934 213.635 82.3424C213.333 84.1554 213.333 86.1195 213.635 87.9326C214.541 88.2347 215.599 88.3858 216.808 88.3858C221.189 88.3858 223.758 85.6663 224.362 80.0761L225.722 66.1761H232.672V87.7815C234.938 88.0836 237.204 88.0836 239.32 87.7815V60.5859H219.527L217.563 79.4717Z" fill="white"/>
<path d="M255.185 60.5899L244.155 87.7854C246.422 88.0876 248.839 88.0876 251.105 87.7854L253.069 82.6485H263.041L265.005 87.7854C267.271 88.0876 269.538 88.0876 271.955 87.7854L260.926 60.5899C258.962 60.2877 257.149 60.2877 255.185 60.5899ZM255.185 77.0583L258.055 69.2018L260.926 77.0583H255.185Z" fill="white"/>
<path d="M306.401 72.8239C304.588 71.162 302.02 70.4065 298.998 70.4065H295.07V66.1761H306.703C307.006 64.3631 307.006 62.5501 306.703 60.5859H288.422V87.7815H299.149C302.171 87.7815 304.588 86.875 306.552 85.3641C308.516 83.7021 309.423 81.5869 309.423 79.0185C309.272 76.45 308.214 74.3348 306.401 72.8239ZM298.998 82.3424H295.07V75.8457H298.998C300.962 75.8457 302.473 77.0543 302.473 79.0185C302.322 81.1337 300.962 82.3424 298.998 82.3424Z" fill="white"/>
<path d="M333.597 60.5899L320.906 76.6051V60.5899C318.639 60.2877 316.373 60.2877 314.258 60.5899V87.7854C316.071 88.0876 317.733 88.0876 319.546 87.7854L332.237 71.7703V87.7854C334.503 88.0876 336.77 88.0876 338.885 87.7854V60.5899C337.072 60.2877 335.41 60.2877 333.597 60.5899Z" fill="white"/>
<path d="M359.888 73.8739C362.154 72.6652 363.665 70.2478 363.665 67.5282C363.665 62.9956 359.888 60.125 353.845 60.125C350.521 60.125 347.801 60.8804 345.535 62.2402C345.384 62.6935 345.233 63.7511 345.233 65.413C345.233 67.075 345.384 67.9815 345.535 68.2837C348.406 66.6217 350.974 65.7152 353.391 65.7152C355.507 65.7152 356.866 66.7728 356.866 68.7369C356.866 70.55 355.809 71.7586 353.996 71.7586H350.068C349.765 73.5717 349.765 75.2336 350.068 77.0467H354.147C356.262 77.0467 357.32 77.9532 357.32 79.9173C357.32 82.0325 355.356 83.0901 353.24 83.0901C350.672 83.0901 347.952 82.1836 345.233 80.5217C345.082 80.8238 344.931 81.8814 344.931 83.3923C344.931 85.0542 345.082 86.1118 345.233 86.5651C347.499 87.9249 350.37 88.6803 353.694 88.6803C356.866 88.6803 359.284 87.9249 361.248 86.5651C363.212 85.2053 364.27 83.2412 364.27 80.6727C364.119 77.4999 362.457 75.0825 359.888 73.8739Z" fill="white"/>
<path d="M394.182 87.7854V60.5899C391.915 60.2877 389.649 60.2877 387.534 60.5899V71.317H376.202V60.5899C373.936 60.2877 371.67 60.2877 369.555 60.5899V87.7854C371.821 88.0876 374.087 88.0876 376.202 87.7854V76.7561H387.534V87.7854C389.649 88.2387 391.915 88.2387 394.182 87.7854Z" fill="white"/>
<path d="M419.717 66.1761C420.019 64.3631 420.019 62.5501 419.717 60.5859H400.68V87.7815H419.717C420.019 85.9684 420.019 84.0043 419.717 82.1913H407.479V76.7522H418.357C418.659 74.9391 418.659 73.1261 418.357 71.162H407.479V66.1761H419.717Z" fill="white"/>
<path d="M439.51 65.5668C441.927 65.5668 444.647 66.4733 447.366 68.1352C447.517 67.833 447.668 66.7754 447.668 65.2646C447.668 63.6026 447.517 62.545 447.366 62.0918C445.1 60.732 442.38 59.9766 439.056 59.9766C434.373 59.9766 430.747 61.3363 427.876 64.0559C425.005 66.7754 423.646 70.0993 423.646 74.1787C423.646 78.258 425.005 81.5819 427.876 84.3015C430.747 87.021 434.373 88.3808 439.056 88.3808C442.38 88.3808 445.1 87.6254 447.366 86.2656C447.517 85.8123 447.668 84.7547 447.668 83.0928C447.668 81.4308 447.517 80.5243 447.366 80.2221C444.495 81.8841 441.927 82.7906 439.51 82.7906C436.941 82.7906 434.826 82.0352 433.164 80.3732C431.502 78.7113 430.595 76.7471 430.595 74.0276C430.595 71.4591 431.502 69.3439 433.164 67.682C434.826 66.3222 436.941 65.5668 439.51 65.5668Z" fill="white"/>
<path d="M463.231 60.5899L452.201 87.7854C454.467 88.0876 456.885 88.0876 459.151 87.7854L461.115 82.6485H471.087L473.051 87.7854C475.317 88.0876 477.584 88.0876 480.001 87.7854L468.972 60.5899C467.008 60.2877 465.044 60.2877 463.231 60.5899ZM468.972 77.0583H463.231L466.101 69.2018L468.972 77.0583Z" fill="white"/>
</svg>
