<svg width="173" height="32" viewBox="0 0 173 32" fill="none" xmlns="http://www.w3.org/2000/svg">
<g clip-path="url(#clip0)">
<path d="M26.3464 4.25412H4.81228L6.35581 0H27.8899L26.3464 4.25412ZM25.5558 6.4H4.02169L2.47816 10.6541H24.0123L25.5558 6.4ZM23.2217 12.8H1.68757L0.144043 17.0918H21.6782L23.2217 12.8Z" fill="#009FE3"/>
<path d="M77.6593 27.7081H81.4993C82.9675 27.7081 83.8334 27.3693 84.4734 26.5411C84.7746 26.127 85.2263 25.4493 85.2263 24.094C85.2263 22.7764 84.7746 21.8352 83.9087 21.1575C83.3816 20.7434 82.6663 20.5552 81.4616 20.5552H77.6593V27.7081ZM72.5393 31.9999V6.3999H89.2169L87.7487 10.6917H77.6593V16.3764H81.7628C85.0758 16.3764 86.8075 17.167 88.0122 18.1834C88.9534 18.974 90.5346 20.7434 90.5346 24.2446C90.5346 27.7081 88.8781 29.5905 87.5228 30.5693C85.9416 31.6611 84.2475 31.9999 80.8216 31.9999H72.5393ZM57.7816 31.9999V10.6917H50.3652V6.3999H70.9205L69.4522 10.6917H62.9016V31.9999H57.7816ZM37.264 16.6399H40.1628C41.0663 16.6399 41.4805 16.6399 41.9322 16.4893C43.1369 16.1505 43.8899 15.0587 43.8899 13.5905C43.8899 11.8587 43.0993 11.1058 41.9322 10.767C41.4428 10.6164 40.9534 10.5787 39.9746 10.5787H37.264V16.6399ZM37.3016 21.0823V27.8211H40.8405C41.8946 27.8211 42.8734 27.7458 43.5887 27.0681C44.304 26.3905 44.6052 25.5623 44.6052 24.4705C44.6052 23.6423 44.3793 22.814 43.9275 22.2493C43.1746 21.3081 42.2334 21.0823 40.6522 21.0823H37.3016ZM45.5087 18.3717V18.447C46.4875 18.7858 47.4287 19.4258 47.9181 19.8023C49.424 21.0446 50.1016 22.7011 50.1016 24.8093C50.1016 28.3105 48.2569 30.8328 45.1699 31.6234C44.2287 31.887 43.2499 31.9623 41.4428 31.9623H32.1816V6.3999H40.3887C42.0828 6.3999 43.2122 6.4752 44.2287 6.73873C47.2028 7.52931 49.1605 9.56226 49.1605 12.7999C49.1605 14.5317 48.5581 15.9999 47.504 16.9787C47.0522 17.4305 46.4499 17.9575 45.5087 18.3717Z" fill="#123274"/>
<path d="M109.584 4.25439H113.349V5.30851H110.826V12.8003H109.622V4.25439H109.584Z" fill="#123274"/>
<path d="M113.123 9.71269C113.123 7.49152 114.102 6.5127 115.57 6.5127C116.963 6.5127 117.904 7.45387 117.904 9.71269V10.0515H114.328C114.403 11.4445 114.817 11.9715 115.947 11.9715C116.737 11.9715 117.264 11.6703 117.528 11.5198V12.6115C117.151 12.7998 116.662 12.9503 115.834 12.9503C114.102 12.9127 113.123 11.9339 113.123 9.71269ZM114.29 9.11034H116.662C116.624 7.86799 116.172 7.45387 115.532 7.45387C114.892 7.45387 114.403 7.83034 114.29 9.11034Z" fill="#123274"/>
<path d="M119.071 6.58838H120.201V9.11073H122.535V6.58838H123.664V12.8001H122.535V10.0143H120.238V12.8001H119.109V6.58838H119.071Z" fill="#123274"/>
<path d="M124.944 9.71269C124.944 7.49152 125.923 6.5127 127.391 6.5127C128.784 6.5127 129.726 7.45387 129.726 9.71269V10.0515H126.149C126.224 11.4445 126.638 11.9715 127.768 11.9715C128.558 11.9715 129.086 11.6703 129.349 11.5198V12.6115C128.973 12.7998 128.483 12.9503 127.655 12.9503C125.923 12.9127 124.944 11.9339 124.944 9.71269ZM126.111 9.11034H128.483C128.446 7.86799 127.994 7.45387 127.354 7.45387C126.714 7.45387 126.224 7.83034 126.111 9.11034Z" fill="#123274"/>
<path d="M130.93 6.58799H132.022V7.45387H132.06C132.436 6.85152 133.001 6.5127 133.678 6.5127C135.034 6.5127 135.937 7.41622 135.937 9.71269C135.937 11.9339 134.958 12.9127 133.603 12.9127C132.963 12.9127 132.398 12.5739 132.097 12.0092H132.06V15.3598H130.93V6.58799ZM134.695 9.71269C134.695 8.01858 134.13 7.45387 133.453 7.45387C132.775 7.45387 132.06 8.13152 132.06 9.71269C132.06 11.2939 132.737 11.9715 133.377 11.9715C134.093 11.9339 134.695 11.3315 134.695 9.71269Z" fill="#123274"/>
<path d="M136.765 11.1062C136.765 9.71323 137.631 8.96029 139.927 8.96029H140.229V8.69676C140.229 7.75559 139.927 7.45441 139.25 7.45441C138.535 7.45441 138.083 7.64264 137.367 8.09441V7.00264C137.782 6.77676 138.422 6.47559 139.25 6.47559C140.756 6.47559 141.396 7.07794 141.396 8.65911V12.8003H140.304V11.9344H140.266C139.927 12.4991 139.438 12.9132 138.572 12.9132C137.443 12.9132 136.765 12.2356 136.765 11.1062ZM140.266 10.3532V9.78853H139.965C138.497 9.78853 138.007 10.2779 138.007 11.0685C138.007 11.6332 138.309 11.9344 138.873 11.9344C139.664 11.9344 140.266 11.3321 140.266 10.3532Z" fill="#123274"/>
<path d="M142.149 12.8383V11.8972C142.262 11.9348 142.375 11.9348 142.525 11.9348C142.977 11.9348 143.203 11.7089 143.203 8.50892V6.55127H147.043V12.8007H145.914V7.53009H144.295V8.54656C144.295 12.4242 143.805 12.9136 142.789 12.9136C142.525 12.9136 142.337 12.9136 142.149 12.8383Z" fill="#123274"/>
<path d="M148.474 6.58838H149.603V8.9225H150.507C152.012 8.9225 152.728 9.63779 152.728 10.8801C152.728 12.0848 152.012 12.8378 150.507 12.8378H148.474V6.58838ZM150.544 9.82603H149.641V11.859H150.544C151.184 11.859 151.561 11.4825 151.561 10.8425C151.523 10.2025 151.147 9.82603 150.544 9.82603Z" fill="#123274"/>
<path d="M153.707 6.58838H154.836V9.11073H157.17V6.58838H158.299V12.8001H157.17V10.0143H154.874V12.8001H153.744V6.58838H153.707Z" fill="#123274"/>
<path d="M159.805 6.58838H160.935V8.9225H161.838C163.344 8.9225 164.059 9.63779 164.059 10.8801C164.059 12.0848 163.344 12.8378 161.838 12.8378H159.805V6.58838ZM161.876 9.82603H160.972V11.859H161.876C162.516 11.859 162.892 11.4825 162.892 10.8425C162.855 10.2025 162.516 9.82603 161.876 9.82603ZM165 6.58838H166.13V12.8001H165V6.58838Z" fill="#123274"/>
<path d="M167.636 6.58871H168.765V11.3322H168.803L170.798 6.58871H172.379V12.8005H171.25V8.05694H171.212L169.217 12.8005H167.636V6.58871ZM168.351 4.21695L169.292 4.104C169.367 4.63106 169.556 4.78165 170.008 4.78165C170.459 4.78165 170.647 4.63106 170.685 4.104L171.626 4.21695C171.551 5.30871 170.76 5.64753 169.97 5.64753C169.255 5.64753 168.426 5.34636 168.351 4.21695Z" fill="#123274"/>
<path d="M109.095 22.514C109.095 20.4057 110.186 19.314 112.069 19.314C112.634 19.314 113.01 19.4646 113.311 19.5398V20.6316C113.01 20.4434 112.634 20.2551 112.106 20.2551C111.015 20.2551 110.337 20.9328 110.337 22.514C110.337 24.0951 111.015 24.7728 112.106 24.7728C112.671 24.7728 113.085 24.5469 113.311 24.3963V25.4881C113.085 25.601 112.634 25.714 112.106 25.714C110.186 25.714 109.095 24.6222 109.095 22.514Z" fill="#123274"/>
<path d="M114.29 19.3887H118.921V25.6004H117.791V20.3298H115.457V25.6004H114.328V19.3887H114.29Z" fill="#123274"/>
<path d="M120.125 22.514C120.125 20.3304 121.179 19.314 122.685 19.314C124.191 19.314 125.245 20.3681 125.245 22.514C125.245 24.6975 124.191 25.714 122.685 25.714C121.179 25.714 120.125 24.6598 120.125 22.514ZM124.04 22.514C124.04 20.8198 123.476 20.2551 122.723 20.2551C121.932 20.2551 121.367 20.8198 121.367 22.514C121.367 24.2081 121.932 24.7728 122.723 24.7728C123.513 24.7351 124.04 24.2081 124.04 22.514Z" fill="#123274"/>
<path d="M126.488 19.3887H127.617V21.911H129.951V19.3887H131.081V25.6004H129.951V22.8146H127.617V25.6004H126.488V19.3887Z" fill="#123274"/>
<path d="M132.323 22.514C132.323 20.4057 133.415 19.314 135.297 19.314C135.862 19.314 136.238 19.4646 136.539 19.5398V20.6316C136.238 20.4434 135.862 20.2551 135.335 20.2551C134.243 20.2551 133.565 20.9328 133.565 22.514C133.565 24.0951 134.243 24.7728 135.335 24.7728C135.899 24.7728 136.313 24.5469 136.539 24.3963V25.4881C136.313 25.601 135.862 25.714 135.335 25.714C133.452 25.714 132.323 24.6222 132.323 22.514Z" fill="#123274"/>
<path d="M136.991 22.514C136.991 20.3304 138.045 19.314 139.551 19.314C141.057 19.314 142.111 20.3681 142.111 22.514C142.111 24.6975 141.057 25.714 139.551 25.714C138.008 25.714 136.991 24.6598 136.991 22.514ZM140.869 22.514C140.869 20.8198 140.304 20.2551 139.551 20.2551C138.761 20.2551 138.196 20.8198 138.196 22.514C138.196 24.2081 138.761 24.7728 139.551 24.7728C140.342 24.7351 140.869 24.2081 140.869 22.514Z" fill="#123274"/>
<path d="M143.316 19.3893H144.408V20.2551H144.445C144.822 19.6528 145.387 19.314 146.064 19.314C147.419 19.314 148.323 20.2175 148.323 22.514C148.323 24.7351 147.344 25.714 145.989 25.714C145.349 25.714 144.784 25.3751 144.483 24.8104H144.445V28.161H143.316V19.3893ZM147.118 22.514C147.118 20.8198 146.554 20.2551 145.876 20.2551C145.198 20.2551 144.483 20.9328 144.483 22.514C144.483 24.0951 145.161 24.7728 145.801 24.7728C146.478 24.7351 147.118 24.1328 147.118 22.514Z" fill="#123274"/>
</g>
<defs>
<clipPath id="clip0">
<rect width="172.235" height="32" fill="white" transform="translate(0.144043)"/>
</clipPath>
</defs>
</svg>
