<svg width="198" height="42" viewBox="0 0 198 42" fill="none" xmlns="http://www.w3.org/2000/svg">
<path d="M60.3001 36.714L62.4001 39.1718C61.9501 39.6327 61.5001 40.0935 60.9001 40.4007C59.7001 41.3224 58.2001 41.6297 56.7001 41.6297C54.6001 41.6297 52.8001 41.0152 51.4501 39.6327C50.1001 38.2501 49.3501 36.5604 49.3501 34.5634C49.3501 32.5664 50.1001 30.8766 51.4501 29.4941C52.8001 28.1115 54.6001 27.4971 56.7001 27.4971C58.3501 27.4971 59.7001 27.9579 60.9001 28.8796C61.5001 29.3405 61.9501 29.6477 62.2501 30.1085L60.1501 32.5664C59.8501 32.2591 59.5501 31.9519 59.2501 31.6447C58.5001 31.0302 57.6001 30.723 56.7001 30.723C55.6501 30.723 54.7501 31.0302 54.1501 31.7983C53.4001 32.5664 53.1001 33.3344 53.1001 34.4097C53.1001 35.4851 53.4001 36.4067 54.1501 37.0212C54.9001 37.7893 55.6501 38.0965 56.7001 38.0965C57.6001 38.0965 58.3501 37.7893 59.2501 37.1748C59.7001 37.3284 60.0001 37.0212 60.3001 36.714Z" fill="white"/>
<path d="M65.7001 39.6327C64.3501 38.2501 63.6001 36.5604 63.6001 34.5634C63.6001 32.5664 64.3501 30.8766 65.7001 29.4941C67.0501 28.1115 68.8501 27.4971 70.9501 27.4971C73.0501 27.4971 74.8501 28.1115 76.2001 29.4941C77.5501 30.8766 78.3001 32.5664 78.3001 34.5634C78.3001 36.5604 77.5501 38.2501 76.2001 39.6327C74.8501 41.0152 72.9001 41.7833 70.8001 41.7833C68.7001 41.7833 67.0501 41.0152 65.7001 39.6327ZM68.2501 31.9519C67.5001 32.72 67.2001 33.4881 67.2001 34.5634C67.2001 35.6387 67.5001 36.5604 68.2501 37.1748C69.0001 37.9429 69.7501 38.2501 70.8001 38.2501C71.8501 38.2501 72.7501 37.9429 73.3501 37.1748C74.1001 36.4067 74.4001 35.6387 74.4001 34.5634C74.4001 33.4881 74.1001 32.5664 73.3501 31.9519C72.6001 31.1838 71.8501 30.8766 70.8001 30.8766C69.7501 30.8766 69.0001 31.3374 68.2501 31.9519Z" fill="white"/>
<path d="M80.3999 41.3215V27.957H86.5499C87.8999 27.957 89.0999 28.4179 89.9999 29.3396C90.8999 30.2613 91.3499 31.3366 91.3499 32.5655C91.3499 33.7944 91.0499 34.7161 90.1499 35.6378C89.8499 35.945 89.3999 36.2522 88.9499 36.4059L91.6499 41.3215H87.8999L85.9499 37.1739H83.9999V41.3215H80.3999ZM83.9999 33.948H86.3999C86.8499 33.948 87.1499 33.7944 87.4499 33.6408C87.7499 33.3336 87.8999 33.0263 87.8999 32.7191C87.8999 32.4119 87.7499 31.951 87.4499 31.7974C87.1499 31.4902 86.8499 31.4902 86.3999 31.4902H83.9999V33.948Z" fill="white"/>
<path d="M93.8999 41.3215V27.957H99.7499C101.25 27.957 102.3 28.4179 103.2 29.3396C104.1 30.2613 104.55 31.3366 104.55 32.7191C104.55 34.1016 104.1 35.1769 103.2 36.0986C102.3 37.0203 101.1 37.4812 99.7499 37.4812H97.3499V41.4752H93.8999V41.3215ZM97.3499 34.1016H99.4499C99.8999 34.1016 100.2 33.948 100.5 33.6408C100.8 33.3336 100.95 33.0263 100.95 32.5655C100.95 32.2583 100.8 31.7974 100.5 31.4902C100.2 31.1829 99.8999 31.0293 99.4499 31.0293H97.3499V34.1016Z" fill="white"/>
<path d="M108.15 39.6327C106.8 38.2501 106.05 36.5604 106.05 34.5634C106.05 32.5664 106.8 30.8766 108.15 29.4941C109.5 28.1115 111.3 27.4971 113.4 27.4971C115.5 27.4971 117.3 28.1115 118.65 29.4941C120 30.8766 120.75 32.5664 120.75 34.5634C120.75 36.5604 120 38.2501 118.65 39.6327C117.3 41.0152 115.5 41.6297 113.4 41.6297C111.3 41.7833 109.65 41.0152 108.15 39.6327ZM110.85 31.9519C110.1 32.72 109.8 33.4881 109.8 34.5634C109.8 35.6387 110.1 36.5604 110.85 37.1748C111.6 37.9429 112.35 38.2501 113.4 38.2501C114.45 38.2501 115.35 37.9429 115.95 37.1748C116.7 36.4067 117 35.6387 117 34.5634C117 33.4881 116.7 32.5664 115.95 31.9519C115.2 31.1838 114.45 30.8766 113.4 30.8766C112.35 30.8766 111.6 31.3374 110.85 31.9519Z" fill="white"/>
<path d="M123 41.3215V27.957H129.15C130.5 27.957 131.7 28.4179 132.6 29.3396C133.5 30.2613 133.95 31.3366 133.95 32.5655C133.95 33.7944 133.65 34.7161 132.75 35.6378C132.45 35.945 132 36.2522 131.55 36.4059L134.25 41.3215H130.5L128.55 37.1739H126.6V41.3215H123ZM126.6 33.948H129C129.45 33.948 129.75 33.7944 130.05 33.6408C130.35 33.3336 130.5 33.0263 130.5 32.7191C130.5 32.4119 130.35 31.951 130.05 31.7974C129.75 31.4902 129.45 31.4902 129 31.4902H126.6V33.948Z" fill="white"/>
<path d="M134.85 41.3215L139.8 27.957H143.7L148.65 41.3215H144.75L143.85 38.4029H139.5L138.6 41.3215H134.85ZM140.55 35.4842H142.95L141.75 31.6438L140.55 35.4842Z" fill="white"/>
<path d="M152.55 41.3215V31.1829H148.95V27.957H159.75V31.1829H156.15V41.3215H152.55Z" fill="white"/>
<path d="M161.7 41.3215V27.957H165.3V41.3215H161.7Z" fill="white"/>
<path d="M169.65 39.6327C168.3 38.2501 167.55 36.5604 167.55 34.5634C167.55 32.5664 168.3 30.8766 169.65 29.4941C171 28.1115 172.8 27.4971 174.9 27.4971C177 27.4971 178.8 28.1115 180.15 29.4941C181.5 30.8766 182.25 32.5664 182.25 34.5634C182.25 36.5604 181.5 38.2501 180.15 39.6327C178.8 41.0152 177 41.6297 174.9 41.6297C172.8 41.7833 171 41.0152 169.65 39.6327ZM172.2 31.9519C171.45 32.72 171.15 33.4881 171.15 34.5634C171.15 35.6387 171.45 36.5604 172.2 37.1748C172.95 37.9429 173.7 38.2501 174.75 38.2501C175.8 38.2501 176.7 37.9429 177.3 37.1748C178.05 36.4067 178.35 35.6387 178.35 34.5634C178.35 33.4881 178.05 32.5664 177.3 31.9519C176.55 31.1838 175.8 30.8766 174.75 30.8766C173.7 30.8766 172.95 31.3374 172.2 31.9519Z" fill="white"/>
<path d="M184.35 41.3215V27.957H187.5L193.05 35.3306V27.957H196.65V41.3215H193.5L187.95 33.948V41.3215H184.35Z" fill="white"/>
<path d="M48.6001 19.5091L52.0501 15.6687C52.3501 16.1296 52.8001 16.4368 53.2501 16.8977C54.3001 17.6657 55.5001 18.1266 56.5501 18.1266C57.4501 18.1266 58.0501 17.973 58.6501 17.5121C59.1001 17.2049 59.4001 16.744 59.4001 16.1296C59.4001 15.6687 59.1001 15.2079 58.6501 14.9007C58.2001 14.5934 57.4501 14.2862 56.7001 13.979C55.9501 13.6717 55.2001 13.5181 54.3001 13.0573C53.4001 12.7501 52.6501 12.2892 51.9001 11.8284C51.1501 11.3675 50.4001 10.9067 49.9501 9.98498C49.5001 9.06329 49.2001 7.98799 49.2001 6.75906C49.2001 4.91568 49.9501 3.37953 51.4501 1.997C52.9501 0.61446 54.9001 0 57.4501 0C59.7001 0 61.5001 0.460845 63.1501 1.53615C63.9001 1.997 64.5001 2.61146 64.9501 3.0723L61.5001 6.91268C61.2001 6.60545 60.9001 6.29822 60.6001 5.99099C59.8501 5.37653 58.9501 5.0693 58.0501 5.0693C57.3001 5.0693 56.7001 5.22291 56.2501 5.53014C55.8001 5.83737 55.6501 6.1446 55.6501 6.60545C55.6501 7.0663 55.9501 7.52714 56.4001 7.83437C56.8501 8.1416 57.6001 8.44883 58.3501 8.75606C59.1001 8.90968 59.8501 9.21691 60.7501 9.67775C61.6501 9.98498 62.4001 10.4458 63.1501 10.9067C63.9001 11.3675 64.5001 12.1356 65.1001 12.9037C65.5501 13.8254 65.8501 14.9007 65.8501 16.1296C65.8501 18.1266 65.1001 19.8163 63.4501 21.1989C61.9501 22.5814 59.8501 23.1959 57.3001 23.1959C54.9001 23.1959 52.6501 22.5814 50.8501 21.3525C49.8001 20.8917 49.2001 20.2772 48.6001 19.5091Z" fill="white"/>
<path d="M73.65 22.7348V14.9005L66 0.614258H72.45L76.5 9.37032H76.65L80.7 0.614258H87.15L79.5 14.9005V22.7348H73.65Z" fill="white"/>
<path d="M88.9502 22.7348V0.614258H94.0502L103.35 12.7499V0.614258H109.2V22.7348H104.1L94.8002 10.5992V22.7348H88.9502Z" fill="white"/>
<path d="M113.7 22.7348V0.614258H130.2V5.99079H119.55V9.2167H127.8V14.1324H119.55V17.3583H130.5V22.7348H113.7Z" fill="white"/>
<path d="M133.8 22.7348V0.614258H144C146.25 0.614258 148.2 1.38233 149.7 2.76487C151.2 4.1474 151.95 5.99079 151.95 8.1414C151.95 10.1384 151.35 11.8282 150.15 13.0571C149.55 13.6715 148.95 14.1324 148.35 14.4396L152.85 22.7348H146.7L142.95 15.8222H139.65V22.7348H133.8ZM139.65 10.4456H143.7C144.45 10.4456 144.9 10.292 145.35 9.83116C145.8 9.37032 145.95 8.90947 145.95 8.29501C145.95 7.68055 145.8 7.06609 145.35 6.75886C144.9 6.29802 144.3 6.1444 143.7 6.1444H139.65V10.4456Z" fill="white"/>
<path d="M166.5 14.9007V10.4458H175.8V19.0483C175.2 19.8164 174.3 20.5844 173.4 21.1989C171.3 22.735 168.9 23.3495 166.2 23.3495C162.75 23.3495 159.9 22.2742 157.65 19.97C155.4 17.6657 154.2 14.9007 154.2 11.6747C154.2 8.44883 155.4 5.68376 157.65 3.37953C159.9 1.07531 162.75 0 166.2 0C168.75 0 171.15 0.768075 173.1 2.15061C174 2.76507 174.75 3.53315 175.35 4.30122L171.75 8.44883C171.3 7.98799 170.7 7.37353 170.1 7.0663C168.75 6.14461 167.4 5.68376 165.9 5.68376C164.25 5.68376 162.75 6.29822 161.55 7.52714C160.35 8.75606 159.75 10.1386 159.75 11.982C159.75 13.8254 160.35 15.2079 161.55 16.4368C162.75 17.6657 164.1 18.2802 165.9 18.2802C166.95 18.2802 168 18.1266 168.75 17.6657C169.05 17.5121 169.35 17.3585 169.8 17.0513V15.3615H166.5V14.9007Z" fill="white"/>
<path d="M184.5 22.7348V14.9005L176.85 0.614258H183.3L187.35 9.37032H187.5L191.55 0.614258H198L190.35 14.9005V22.7348H184.5Z" fill="white"/>
<path d="M24.2999 25.1928L20.2499 20.8916L24.2999 16.7439V8.44873L12.1499 20.8916L24.2999 33.488V25.1928Z" fill="#FF0044"/>
<path d="M0 0.154297V41.784H40.6501V0.154297H0ZM34.8001 35.793H5.70001V6.14528H34.8001V35.793Z" fill="#FF0044"/>
</svg>
